<svg width="328" height="44" viewBox="0 0 328 44" fill="none" xmlns="http://www.w3.org/2000/svg">
<rect width="328" height="44" rx="22" fill="#242424"/>
<path d="M101.554 27L102.299 24.7168H105.881L106.626 27H108.827L105.409 17.1016H102.771L99.3389 27H101.554ZM102.818 23.1172L104.056 19.3301H104.124L105.361 23.1172H102.818ZM109.907 29.7891H111.931V25.8105H111.985C112.272 26.4258 112.895 27.123 114.104 27.123C115.8 27.123 117.119 25.7764 117.112 23.2949C117.119 20.752 115.745 19.4805 114.104 19.4805C112.854 19.4805 112.266 20.2188 111.985 20.8203H111.903V19.5762H109.907V29.7891ZM111.89 23.2812C111.883 21.9482 112.45 21.0938 113.462 21.0938C114.508 21.0938 115.055 21.9893 115.048 23.2812C115.055 24.5938 114.494 25.5029 113.462 25.5098C112.457 25.5029 111.883 24.6211 111.89 23.2812ZM118.425 29.7891H120.448V25.8105H120.503C120.79 26.4258 121.412 27.123 122.622 27.123C124.317 27.123 125.637 25.7764 125.63 23.2949C125.637 20.752 124.263 19.4805 122.622 19.4805C121.371 19.4805 120.783 20.2188 120.503 20.8203H120.421V19.5762H118.425V29.7891ZM120.407 23.2812C120.4 21.9482 120.968 21.0938 121.979 21.0938C123.025 21.0938 123.572 21.9893 123.565 23.2812C123.572 24.5938 123.012 25.5029 121.979 25.5098C120.975 25.5029 120.4 24.6211 120.407 23.2812ZM128.966 17.1016H126.942V27H128.966V17.1016ZM133.901 27.1504C135.733 27.1436 136.964 26.2549 137.251 24.8809H135.323C135.125 25.3252 134.633 25.626 133.942 25.6328C132.896 25.626 132.233 24.9355 132.233 23.8145H137.306V23.2402C137.306 20.7109 135.768 19.4805 133.819 19.4805C131.646 19.4805 130.23 21.0322 130.237 23.3223C130.23 25.6738 131.625 27.1436 133.901 27.1504ZM132.233 22.543C132.274 21.6885 132.931 20.9912 133.86 20.998C134.763 20.9912 135.385 21.6406 135.392 22.543H132.233ZM152.167 15.8164H150.526V28.2578H152.167V15.8164ZM141.188 24.4434L142.214 25.6738C144.538 24.293 145.81 22.5635 146.391 20.5059H147.915V22.2012H146.151V23.6094H147.915V27.7109H149.569V16.0898H147.915V19.0977H146.678C146.753 18.5166 146.794 17.915 146.794 17.293H141.913V18.7012H145.058C144.818 21.1416 143.711 22.9531 141.188 24.4434ZM163.966 15.8164H162.229V18.8516H160.288V20.2598H162.229V23.1992H163.966V15.8164ZM153.397 21.832L154.3 23.2129C155.776 22.707 156.774 21.6885 157.321 20.4238C157.861 21.5381 158.812 22.4404 160.179 22.8848L161.04 21.5176C159.105 20.875 158.217 19.4121 158.183 17.9629H160.657V16.5684H153.903V17.9629H156.405C156.364 19.5215 155.435 21.1484 153.397 21.832ZM155.435 25.8789C155.435 27.3896 157.062 28.2715 159.714 28.2715C162.373 28.2715 164 27.3896 164.007 25.8789C164 24.3682 162.373 23.4795 159.714 23.4727C157.062 23.4795 155.435 24.3682 155.435 25.8789ZM157.171 25.8789C157.171 25.1611 158.066 24.8057 159.714 24.8125C161.368 24.8057 162.264 25.1611 162.271 25.8789C162.264 26.5898 161.368 26.9453 159.714 26.9453C158.066 26.9453 157.171 26.5898 157.171 25.8789ZM171.253 16.4453C168.621 16.4521 166.577 17.874 166.577 20.0273C166.577 22.2012 168.621 23.6162 171.253 23.6094C173.878 23.6162 175.936 22.2012 175.942 20.0273C175.936 17.874 173.878 16.4521 171.253 16.4453ZM165.579 26.7402H176.968V25.332H165.579V26.7402ZM168.272 20.0273C168.266 18.6943 169.523 17.8535 171.253 17.8672C172.969 17.8535 174.213 18.6943 174.22 20.0273C174.213 21.3809 172.969 22.1875 171.253 22.1875C169.523 22.1875 168.266 21.3809 168.272 20.0273ZM189.067 25.4414H184.214V23.5684H188.042V22.1465H180.741V20.752H187.755V16.623H178.978V18.0176H186.032V19.3848H178.991V23.5684H182.478V25.4414H177.679V26.877H189.067V25.4414ZM204.394 25.4414H199.54V23.5684H203.368V22.1465H196.067V20.752H203.081V16.623H194.304V18.0176H201.358V19.3848H194.317V23.5684H197.804V25.4414H193.005V26.877H204.394V25.4414ZM215.058 16.9648H206.28V18.3594H213.321V18.4551C213.314 20.1094 213.314 21.8867 212.843 24.2793L214.606 24.4297C215.051 21.8525 215.051 20.1641 215.058 18.4551V16.9648ZM205.104 26.6309H216.452V25.1953H205.104V26.6309ZM227.622 15.8301H225.872V24.7715H227.622V15.8301ZM217.396 19.7539C217.396 21.6064 218.886 22.9121 220.8 22.9121C222.707 22.9121 224.197 21.6064 224.204 19.7539C224.197 17.9287 222.707 16.6162 220.8 16.623C218.886 16.6162 217.396 17.9287 217.396 19.7539ZM219.104 19.7539C219.091 18.7422 219.822 18.1338 220.8 18.1406C221.743 18.1338 222.475 18.7422 222.481 19.7539C222.475 20.793 221.743 21.3945 220.8 21.3945C219.822 21.3945 219.091 20.793 219.104 19.7539ZM219.282 28.0391H227.95V26.6445H221.046V23.8691H219.282V28.0391Z" fill="white"/>
</svg>
