<svg width="24" height="24" viewBox="0 0 24 24" fill="none" xmlns="http://www.w3.org/2000/svg">
<g clip-path="url(#clip0_2_1561)">
<path d="M21.137 0.75H2.86302C1.69603 0.75 0.75 1.69603 0.75 2.86302V21.137C0.75 22.304 1.69603 23.25 2.86302 23.25H21.137C22.304 23.25 23.25 22.304 23.25 21.137V2.86302C23.25 1.69603 22.304 0.75 21.137 0.75Z" fill="#FFE300"/>
<path d="M15.7679 12.0004C16.4336 11.5625 16.9403 10.9216 17.2128 10.1729C17.4853 9.42414 17.509 8.60749 17.2804 7.84419C17.0519 7.0809 16.5832 6.41168 15.9441 5.93591C15.305 5.46014 14.5294 5.2032 13.7326 5.20325H7.52538C7.46808 5.20325 7.41313 5.22601 7.37261 5.26653C7.33209 5.30705 7.30933 5.362 7.30933 5.4193V18.5814C7.30933 18.6387 7.33209 18.6936 7.37261 18.7342C7.41313 18.7747 7.46808 18.7975 7.52538 18.7975H13.7326C14.5294 18.7975 15.305 18.5406 15.9441 18.0648C16.5832 17.589 17.0519 16.9198 17.2804 16.1565C17.509 15.3932 17.4853 14.5766 17.2128 13.8278C16.9403 13.0791 16.4336 12.4382 15.7679 12.0004ZM12.7215 15.1029H11.5548V8.90644H12.7215V15.1029Z" fill="#1E1E1E"/>
</g>
<defs>
<clipPath id="clip0_2_1561">
<rect width="24" height="24" fill="white"/>
</clipPath>
</defs>
</svg>
