<svg width="24" height="24" viewBox="0 0 24 24" fill="none" xmlns="http://www.w3.org/2000/svg">
<path d="M3.42377 9.30208L11.6407 6.13835C11.872 6.0493 12.128 6.0493 12.3593 6.13835L20.5762 9.30208C21.4305 9.63099 21.4305 10.8396 20.5762 11.1685L12.3593 14.3322C12.128 14.4213 11.872 14.4213 11.6407 14.3322L3.42377 11.1685C2.56952 10.8396 2.56953 9.63098 3.42377 9.30208Z" stroke="#242424"/>
<path d="M6.5 12.3528V16.9999C6.5 17.5522 6.94772 17.9999 7.5 17.9999H16.5C17.0523 17.9999 17.5 17.5522 17.5 16.9999V12.3528" stroke="#242424"/>
<path d="M19.7002 11.6472V15.8824" stroke="#242424"/>
<ellipse cx="19.7001" cy="15.1764" rx="1.1" ry="1.41176" fill="#242424"/>
</svg>
